<svg width="14" height="16" viewBox="0 0 14 16" xmlns="http://www.w3.org/2000/svg"><title>book</title><path fill="#ABD037" d="M13.5 16c.275 0 .5-.225.5-.5V15a.5.5 0 0 0-.403-.49c-.131-.407-.131-1.613 0-2.02A.5.5 0 0 0 14 12V.5c0-.275-.225-.5-.5-.5h-11A2.5 2.5 0 0 0 0 2.5v11A2.5 2.5 0 0 0 2.5 16h11Zm-12-4.79V2.5c0-.553.447-1 1-1h10V11h-10a2.48 2.48 0 0 0-1 .21ZM10.75 5a.25.25 0 0 0 .25-.25v-1a.25.25 0 0 0-.25-.25h-6.5a.25.25 0 0 0-.25.25v1c0 .138.112.25.25.25h6.5Zm0 2.5a.25.25 0 0 0 .25-.25v-1a.25.25 0 0 0-.25-.25h-6.5a.25.25 0 0 0-.25.25v1c0 .138.112.25.25.25h6.5Zm1.562 7H2.5a.999.999 0 1 1 0-2h9.812a7.932 7.932 0 0 0 0 2Z" fill-rule="nonzero"></path></svg>
