<svg width="24px" height="24px" viewBox="0 0 24 24" version="1.1" xmlns="http://www.w3.org/2000/svg"
    xmlns:xlink="http://www.w3.org/1999/xlink">
    <title>atom / mostread icon</title>
    <g stroke="none" stroke-width="1" fill="none" fill-rule="evenodd">
        <g id="book" transform="translate(2.000000, 2.500042)" fill="#ABD037" fill-rule="nonzero">
            <path
                d="M17.4999583,14.0624665 L17.4999583,0.937497765 C17.4999583,0.417975383 17.0819829,0 16.5624605,0 L3.74999106,0 C1.6796835,0 0,1.6796835 0,3.74999106 L0,16.2499613 C0,18.3202688 1.6796835,19.9999523 3.74999106,19.9999523 L16.5624605,19.9999523 C17.0819829,19.9999523 17.4999583,19.5819769 17.4999583,19.0624546 L17.4999583,18.437456 C17.4999583,18.144488 17.3632399,17.8788713 17.1522876,17.7069814 C16.988256,17.1054432 16.988256,15.3905883 17.1522876,14.789012 C17.3632399,14.6210513 17.4999583,14.3554345 17.4999583,14.0624665 Z M4.99998808,5.23436252 C4.99998808,5.10546421 5.10546421,4.99998808 5.23436252,4.99998808 L13.5155928,4.99998808 C13.6444911,4.99998808 13.7499672,5.10546421 13.7499672,5.23436252 L13.7499672,6.01561066 C13.7499672,6.14450897 13.6444911,6.2499851 13.5155928,6.2499851 L5.23436252,6.2499851 C5.10546421,6.2499851 4.99998808,6.14450897 4.99998808,6.01561066 L4.99998808,5.23436252 Z M4.99998808,7.73435656 C4.99998808,7.60545825 5.10546421,7.49998212 5.23436252,7.49998212 L13.5155928,7.49998212 C13.6444911,7.49998212 13.7499672,7.60545825 13.7499672,7.73435656 L13.7499672,8.5156047 C13.7499672,8.64450301 13.6444911,8.74997914 13.5155928,8.74997914 L5.23436252,8.74997914 C5.10546421,8.74997914 4.99998808,8.64450301 4.99998808,8.5156047 L4.99998808,7.73435656 Z M14.8984172,17.4999642 L3.74999106,17.4999642 C3.05857883,17.4999642 2.49999404,16.9413735 2.49999404,16.2499613 C2.49999404,15.5624782 3.06250796,14.9999642 3.74999106,14.9999642 L14.8984172,14.9999642 C14.8241834,15.6679161 14.8241834,16.8320064 14.8984172,17.4999642 Z"
                id="Shape"></path>
        </g>
        <g id="book2" transform="translate(3.000000, 3.500042)" fill="#000000" fill-rule="nonzero">
            <path
                d="M4.99998808,5.93748584 C4.99998808,6.10937569 5.14059749,6.2499851 5.31248733,6.2499851 L13.437468,6.2499851 C13.6093578,6.2499851 13.7499672,6.10937569 13.7499672,5.93748584 L13.7499672,4.68748882 C13.7499672,4.51559898 13.6093578,4.37498957 13.437468,4.37498957 L5.31248733,4.37498957 C5.14059749,4.37498957 4.99998808,4.51559898 4.99998808,4.68748882 L4.99998808,5.93748584 Z M5.31248733,9.37497765 L13.437468,9.37497765 C13.6093578,9.37497765 13.7499672,9.23436824 13.7499672,9.06247839 L13.7499672,7.81248137 C13.7499672,7.64059152 13.6093578,7.49998212 13.437468,7.49998212 L5.31248733,7.49998212 C5.14059749,7.49998212 4.99998808,7.64059152 4.99998808,7.81248137 L4.99998808,9.06247839 C4.99998808,9.23436824 5.14059749,9.37497765 5.31248733,9.37497765 Z M16.996038,15.6132517 C17.285115,15.554658 17.4999583,15.3046434 17.4999583,14.9999642 L17.4999583,0.62499851 C17.4999583,0.281256959 17.2187013,0 16.8749598,0 L3.12499255,0 C1.39842654,0 0,1.39842654 0,3.12499255 L0,16.8749598 C0,18.6015258 1.39842654,19.9999523 3.12499255,19.9999523 L16.8749598,19.9999523 C17.2187013,19.9999523 17.4999583,19.7186954 17.4999583,19.3749538 L17.4999583,18.7499553 C17.4999583,18.4452762 17.2812241,18.1913705 16.996038,18.1366679 C16.8320064,17.6288566 16.8320064,16.1210629 16.996038,15.6132517 Z M15.3905883,15.6249627 C15.2851122,16.3007348 15.2851122,17.4491848 15.3905883,18.1249627 L3.12499255,18.1249627 C2.43358032,18.1249627 1.87499553,17.566372 1.87499553,16.8749598 C1.87499553,16.1874767 2.43750945,15.6249627 3.12499255,15.6249627 L15.3905883,15.6249627 Z M15.6249627,1.87499553 L15.6249627,13.7499672 L3.12499255,13.7499672 C2.67966585,13.7499672 2.25779949,13.8437323 1.87499553,14.011693 L1.87499553,3.12499255 C1.87499553,2.43358032 2.43358032,1.87499553 3.12499255,1.87499553 L15.6249627,1.87499553 Z"
                id="Shape2"></path>
        </g>
    </g>
</svg>
