<svg xmlns="http://www.w3.org/2000/svg" width="20" height="21" viewBox="0 0 20 21"><title>comments</title><path fill="#ABD037" fill-rule="nonzero" d="M6.719 20.5a.448.448 0 0 0 .277-.094l4.879-3.656H17.5c1.379 0 2.5-1.121 2.5-2.5V3C20 1.621 18.879.5 17.5.5h-15A2.502 2.502 0 0 0 0 3v11.25c0 1.379 1.121 2.5 2.5 2.5h3.75v3.281c0 .278.227.469.469.469Zm1.406-3.281v-2.344H2.5a.627.627 0 0 1-.625-.625V3c0-.344.281-.625.625-.625h15c.344 0 .625.281.625.625v11.25a.627.627 0 0 1-.625.625h-6.25l-.5.375-2.625 1.969Z"></path></svg>
