<svg width="24px" height="24px" viewBox="0 0 24 24" version="1.1" xmlns="http://www.w3.org/2000/svg" xmlns:xlink="http://www.w3.org/1999/xlink"><title>atom / feature icon</title><g stroke="none" stroke-width="1" fill="none" fill-rule="evenodd"><g id="star" transform="translate(-0.199231, 0.499553)" fill="#ABD037" fill-rule="nonzero"><path d="M9.32810572,0.695791747 L6.77733818,5.86766967 L1.0703358,6.69969131 C0.0468931085,6.84812083 -0.363262164,8.10982894 0.378923567,8.83248347 L4.5078276,12.8559114 L3.53126743,18.5394916 C3.3554866,19.5668634 4.43748475,20.3363623 5.34374022,19.8559023 L10.4492044,17.1723073 L15.5546686,19.8559023 C16.4609241,20.3324713 17.5429223,19.5668634 17.3671414,18.5394916 L16.3905813,12.8559114 L20.5194853,8.83248347 C21.261671,8.10982894 20.8515157,6.84812083 19.8280731,6.69969131 L14.1210707,5.86766967 L11.5703031,0.695791747 C11.1132653,-0.226065796 9.78903449,-0.237776889 9.32810572,0.695791747 Z" id="Path"></path></g><g id="star" transform="translate(1.800769, 2.499553)" fill="#000000" fill-rule="nonzero"><path d="M19.8280731,6.69969131 L14.1210707,5.86766967 L11.5703031,0.695791747 C11.1132653,-0.226065796 9.78903449,-0.237776889 9.32810572,0.695791747 L6.77733818,5.86766967 L1.0703358,6.69969131 C0.0468931085,6.84812083 -0.363262164,8.10982894 0.378923567,8.83248347 L4.5078276,12.8559114 L3.53126743,18.5394916 C3.3554866,19.5668634 4.43748475,20.3363623 5.34374022,19.8559023 L10.4492044,17.1723073 L15.5546686,19.8559023 C16.4609241,20.3324713 17.5429223,19.5668634 17.3671414,18.5394916 L16.3905813,12.8559114 L20.5194853,8.83248347 C21.261671,8.10982894 20.8515157,6.84812083 19.8280731,6.69969131 Z M14.3788673,12.1996706 L15.304654,17.6059229 L10.4492044,15.0551554 L5.59375488,17.6059229 L6.51954156,12.1996706 L2.58984054,8.3715547 L8.01951509,7.58248645 L10.4492044,2.66062318 L12.8788938,7.58248645 L18.3085683,8.3715547 L14.3788673,12.1996706 Z" id="Shape2"></path></g></g></svg>
