<svg xmlns="http://www.w3.org/2000/svg" width="16" height="14" viewBox="0 0 16 14"><path fill="#000" fill-rule="nonzero" d="M8.447 9.725 10 6.619 10.69 8h4.126a4.754 4.754 0 0 0 1.18-3.125C16 1.778 13.307 0 11.085 0 9.944 0 8.866.384 8 1.09A4.851 4.851 0 0 0 4.916 0C2.694 0 0 1.778 0 4.875 0 6.041.428 7.128 1.181 8h3.65l.935-2.24 1.778 3.946a.5.5 0 0 0 .903.019Zm-.422-1.39L6.206 4.293a.501.501 0 0 0-.919.012L4.166 7H2.294C.456 4.828 2.075 1.5 4.916 1.5c.968 0 1.593.194 3.084 1.669C9.597 1.59 10.16 1.5 11.084 1.5c2.85 0 4.46 3.328 2.622 5.5H11.31l-.862-1.725a.5.5 0 0 0-.894 0l-1.528 3.06Zm1.356 5.096L13.86 9h-2.13l-3.404 3.366a.466.466 0 0 1-.653 0L4.272 9H2.14l4.478 4.431c.765.756 1.997.76 2.762 0Z"></path></svg>
