<svg xmlns="http://www.w3.org/2000/svg" width="12" height="16" viewBox="0 0 12 16"><path fill="#000" fill-rule="nonzero" d="M.962 16c.254 0 .46-.194.479-.45.009-.14.03-.328.068-.55h8.97c.037.222.065.419.077.553a.483.483 0 0 0 .478.447h.485c.36 0 .493-.334.478-.525-.066-.922-.51-3.962-3.39-6.525-.395.29-.82.569-1.279.834.284.235.531.475.769.72H3.862A10.56 10.56 0 0 1 6.341 8.65C11.244 5.953 11.912 1.75 12 .528 12.016.281 11.837 0 11.519 0h-.482a.479.479 0 0 0-.478.45c-.009.14-.03.328-.068.55H1.519a6.045 6.045 0 0 1-.075-.553A.483.483 0 0 0 .966 0H.48C.163 0-.016.284 0 .528.081 1.644.663 5.31 4.622 7.994.666 10.669.082 14.34 0 15.472c-.016.247.163.528.481.528h.481ZM9.32 4H2.697a8.577 8.577 0 0 1-.76-1.5h8.138A8.338 8.338 0 0 1 9.319 4ZM6 7.15A10.266 10.266 0 0 1 3.89 5.5h4.232A10.499 10.499 0 0 1 6 7.15Zm4.05 6.35H1.919c.178-.466.422-.975.753-1.5h6.615c.332.525.582 1.031.763 1.5Z"></path></svg>
