<svg width="24px" height="24px" viewBox="0 0 24 24" version="1.1" xmlns="http://www.w3.org/2000/svg" xmlns:xlink="http://www.w3.org/1999/xlink"><title>atom / latest icon</title><g stroke="none" stroke-width="1" fill="none" fill-rule="evenodd"><g id="clock" transform="translate(0.312499, 1.812541)" fill="#ABD037" fill-rule="nonzero"><path d="M9.6874769,0 C4.33592716,0 0,4.33592716 0,9.6874769 C0,15.0390266 4.33592716,19.3749538 9.6874769,19.3749538 C15.0390266,19.3749538 19.3749538,15.0390266 19.3749538,9.6874769 C19.3749538,4.33592716 15.0390266,0 9.6874769,0 Z M11.9179251,13.6757334 L8.47265131,11.1718484 C8.35153496,11.0820125 8.28123026,10.9413649 8.28123026,10.7929354 L8.28123026,4.21873994 C8.28123026,3.96094332 8.49218251,3.74999106 8.74997914,3.74999106 L10.6249747,3.74999106 C10.8827713,3.74999106 11.0937236,3.96094332 11.0937236,4.21873994 L11.0937236,9.597641 L13.5741864,11.4023318 C13.7851386,11.5546523 13.828092,11.8476204 13.6757334,12.0585726 L12.574204,13.5741864 C12.4218454,13.7812095 12.1288773,13.828092 11.9179251,13.6757334 Z" id="Shape"></path></g><g id="clock2" transform="translate(2.312499, 2.812541)" fill="#000000" fill-rule="nonzero"><path d="M9.6874769,0 C4.33592716,0 0,4.33592716 0,9.6874769 C0,15.0390266 4.33592716,19.3749538 9.6874769,19.3749538 C15.0390266,19.3749538 19.3749538,15.0390266 19.3749538,9.6874769 C19.3749538,4.33592716 15.0390266,0 9.6874769,0 Z M9.6874769,17.4999583 C5.37108094,17.4999583 1.87499553,14.0038729 1.87499553,9.6874769 C1.87499553,5.37108094 5.37108094,1.87499553 9.6874769,1.87499553 C14.0038729,1.87499553 17.4999583,5.37108094 17.4999583,9.6874769 C17.4999583,14.0038729 14.0038729,17.4999583 9.6874769,17.4999583 Z M12.101526,13.4218277 C12.3124783,13.5741864 12.6054463,13.5273039 12.7577668,13.3202807 L13.4921706,12.3085491 C13.6444911,12.097635 13.6015377,11.804667 13.3905854,11.6523083 L10.7812243,9.75389062 L10.7812243,4.21873994 C10.7812243,3.96094332 10.570272,3.74999106 10.3124754,3.74999106 L9.06247839,3.74999106 C8.80468177,3.74999106 8.59372951,3.96094332 8.59372951,4.21873994 L8.59372951,10.6327948 C8.59372951,10.7812243 8.66403421,10.9218337 8.78515056,11.0117078 L12.101526,13.4218277 Z" id="Shape2"></path></g></g></svg>
