<svg xmlns="http://www.w3.org/2000/svg" xmlns:xlink="http://www.w3.org/1999/xlink" height="30" width="120" viewBox="0 0 228 42"><title>IFLScience</title><defs><path id="a" d="M0 0h228v42H0z"></path><path id="c" d="M0 0h228v42H0z"></path><path id="e" d="M0 0h228v42H0z"></path><path id="g" d="M0 0h228v42H0z"></path><path id="i" d="M0 0h228v42H0z"></path><path id="k" d="M0 0h228v42H0z"></path><path id="m" d="M0 0h228v42H0z"></path><path id="o" d="M0 0h228v42H0z"></path><path id="q" d="M0 0h228v42H0z"></path><path id="s" d="M0 0h228v42H0z"></path></defs><g fill="none" fill-rule="evenodd"><mask id="b" fill="#fff"><use xlink:href="#a"></use></mask><path class="colored" fill="#FFF" fill-rule="nonzero" d="M153.965 0h10.616c0 1.354-.046 2.749-.046 3.998 2.5-4.166 6.425-4.164 10.428-3.878 3.877.278 5.67 2.355 4.836 6.106-1.197 5.368-7.306 27.782-8.876 33.91-.346 1.35-.886 1.91-2.348 1.861-3.06-.1-9.574-.03-9.574-.03l7.608-28.607c.356-1.334 1-2.923-.976-3.483-1.872-.528-2.75.817-3.176 2.344-1.986 7.121-7.007 25.914-7.802 28.331-.19.581-1.04 1.323-1.615 1.347-3.226.13-10.04.063-10.04.063L153.965 0z" mask="url(#b)"></path><mask id="d" fill="#fff"><use xlink:href="#c"></use></mask><path class="colored" fill="#FFF" fill-rule="nonzero" d="M136.219 16.196h9.79c-.78 3.019-1.437 5.827-2.289 8.576-.127.408-1.163.744-1.79.763-2.64.084-8.183.035-8.183.035l-1.99 7.296h10.41s-1.356 5.505-2.178 8.049c-.167.51-1.18 1.057-1.806 1.063-3.885.04-7.778.045-11.656-.156-5.61-.29-7.373-2.506-6.166-8.036 1.164-5.344 2.615-10.631 4.054-15.912 1.073-3.938 2.292-7.839 3.516-11.736 1.193-3.8 3.974-5.863 7.88-6.029C140.751-.102 151 .06 151 .06s-1.307 5.396-2.144 7.986c-.148.462-1.267.844-1.952.868-2.802.097-8.679.041-8.679.041l-2.006 7.242z" mask="url(#d)"></path><mask id="f" fill="#fff"><use xlink:href="#e"></use></mask><path class="colored" fill="#FFF" fill-rule="nonzero" d="M213.219 16.196h9.79c-.78 3.019-1.437 5.827-2.289 8.576-.127.408-1.164.744-1.79.763-2.64.084-8.183.035-8.183.035l-1.99 7.296h10.41s-1.356 5.505-2.178 8.049c-.165.51-1.178 1.057-1.806 1.063-3.885.04-7.778.045-11.656-.156-5.61-.29-7.373-2.506-6.166-8.036 1.164-5.344 2.615-10.631 4.054-15.912 1.073-3.938 2.292-7.839 3.516-11.736 1.193-3.8 3.974-5.863 7.88-6.029C217.752-.102 228 .06 228 .06s-1.307 5.396-2.144 7.986c-.148.462-1.267.844-1.952.868-2.802.097-8.679.041-8.679.041l-2.006 7.242z" mask="url(#f)"></path><mask id="h" fill="#fff"><use xlink:href="#g"></use></mask><path class="colored" fill="#FFF" fill-rule="nonzero" d="M71.668 26.168c-1.83-.272-3.295-.413-4.724-.72-2.787-.6-4.326-2.045-3.762-4.825 1.152-5.68 2.761-11.284 4.494-16.821.68-2.173 2.942-3.657 5.17-3.72C78.148-.067 89 .034 89 .034s-1.353 5.582-2.148 8.15c-.14.459-1.049.928-1.625.957-2.21.112-4.432.122-6.643.02-1.421-.065-2.056.45-2.327 1.855-.34 1.764-1.402 5.289-1.402 5.289s3.188.426 4.706.69c2.862.498 4.68 2.1 4.112 4.812-1.22 5.827-2.85 11.597-4.78 17.228-.452 1.317-2.71 2.944-4.22 2.952-5.806.03-17.673.003-17.673.003l4.188-8.689s4.061.062 7.003-.051c.622-.023 1.576-.555 1.768-1.075.698-1.915 1.14-3.924 1.709-6.006" mask="url(#h)"></path><mask id="j" fill="#fff"><use xlink:href="#i"></use></mask><path class="ifl" fill="#ABD037" fill-rule="nonzero" d="m45 .005-2.31 9.098h-7.014l-2.024 7.437h6.501l-2.342 9.246h-6.535s-2.53 9.06-3.513 13.595c-.872 2.816-3.994 2.616-3.994 2.616H16c.166-.971 10.205-39.794 10.205-39.794S26.949.045 28.978.007C34.238-.008 45 .005 45 .005" mask="url(#j)"></path><mask id="l" fill="#fff"><use xlink:href="#k"></use></mask><path class="colored" fill="#FFF" fill-rule="nonzero" d="M111 .07s-1.433 5.69-2.274 8.321c-.13.409-1.154.727-1.782.76-5.416.303-5.584.385-6.974 5.453a842.487 842.487 0 0 0-3.807 14.29c-.971 3.797-.524 4.314 3.448 4.37.821.013 2.739.001 2.739.001s-1.297 4.97-2.027 7.548c-.24.853-1.143 1.17-1.684 1.173-3.576.024-7.162.048-10.724-.222-3.77-.287-5.504-1.884-4.737-5.605 1.356-6.587 3.1-13.1 4.818-19.609.941-3.568 2.086-7.09 3.275-10.588C92.376 2.705 94.837.333 98.3.127 102.423-.12 111 .069 111 .069" mask="url(#l)"></path><mask id="n" fill="#fff"><use xlink:href="#m"></use></mask><path class="colored" fill="#FFF" fill-rule="nonzero" d="M204 .07s-1.433 5.69-2.274 8.321c-.13.409-1.154.727-1.782.76-5.416.303-5.584.385-6.974 5.453a842.488 842.488 0 0 0-3.807 14.29c-.971 3.797-.524 4.314 3.448 4.37.821.013 2.738.001 2.738.001s-1.296 4.97-2.024 7.548c-.241.853-1.145 1.17-1.686 1.173-3.576.024-7.162.048-10.722-.222-3.772-.287-5.506-1.884-4.74-5.605 1.357-6.587 3.102-13.1 4.819-19.609.941-3.568 2.086-7.09 3.275-10.588 1.105-3.257 3.566-5.629 7.03-5.835C195.423-.12 204 .069 204 .069" mask="url(#n)"></path><g><mask id="p" fill="#fff"><use xlink:href="#o"></use></mask><path class="ifl" fill="#ABD037" fill-rule="nonzero" d="m50.553 33.217 9.225-2.376s-3.926 7.408-5.33 10.173c-.235.462-1.013.98-1.537.986L37 41.995 48.057 0H60l-9.447 33.217z" mask="url(#p)"></path></g><g><mask id="r" fill="#fff"><use xlink:href="#q"></use></mask><path class="ifl" fill="#ABD037" fill-rule="nonzero" d="M0 42S8.125 11.011 10.316 2.26c.404-1.611.947-2.35 2.708-2.25 2.898-.002 8.976 0 8.976 0S11.935 38.973 11.508 40.517C11.083 42.062 9.169 42 9.169 42H0z" mask="url(#r)"></path></g><g><mask id="t" fill="#fff"><use xlink:href="#s"></use></mask><path class="colored" fill="#FFF" fill-rule="nonzero" d="M103 42s8.125-30.989 10.316-39.741c.404-1.611.947-2.35 2.708-2.25 2.898-.002 8.976 0 8.976 0s-10.065 38.964-10.49 40.508c-.427 1.545-2.34 1.483-2.34 1.483H103z" mask="url(#t)"></path></g></g></svg>
