<svg width="19" height="18" viewBox="0 0 19 18" xmlns="http://www.w3.org/2000/svg"><title>plus-circle</title><path d="M9.4 17.969a8.717 8.717 0 0 0 8.719-8.719A8.717 8.717 0 0 0 9.4.531 8.717 8.717 0 0 0 .681 9.25 8.717 8.717 0 0 0 9.4 17.969Zm.984-3.656H8.416a.423.423 0 0 1-.422-.422v-3.235H4.759a.423.423 0 0 1-.422-.422V8.266c0-.232.19-.422.422-.422h3.235V4.609c0-.232.19-.421.422-.421h1.968c.232 0 .422.19.422.421v3.235h3.235c.232 0 .421.19.421.422v1.968c0 .232-.19.422-.421.422h-3.235v3.235c0 .232-.19.422-.422.422Z" fill="#000" fill-rule="nonzero"></path></svg>
