<svg xmlns="http://www.w3.org/2000/svg" width="18" height="16" viewBox="0 0 18 16"><path fill="#000" fill-rule="nonzero" d="M1.456 15.497c.013-.035.656-1.797 2.385-3.44a5.992 5.992 0 0 0 5.796 2.909C14.547 14.609 18 10.209 18 4.822c0-1.569-.338-3.194-.931-4.519A.487.487 0 0 0 16.622 0a.506.506 0 0 0-.438.266C15.216 1.95 13.481 3 11.5 3H9C5.687 3 3 5.688 3 9c0 .556.081 1.09.222 1.6C.906 12.616.056 14.962.04 15.006a.75.75 0 0 0 1.416.49Zm3.581-4.413c1.482-1.028 3.5-1.834 6.216-1.834.413 0 .75-.337.75-.75a.752.752 0 0 0-.75-.75c-2.853 0-5.034.797-6.687 1.856-.029-.2-.063-.4-.063-.606 0-2.481 2.019-4.5 4.5-4.5h2.5c1.81 0 3.488-.687 4.75-1.903.163.725.25 1.484.25 2.225-.003 4.719-2.934 8.356-7.022 8.653-2.69.284-4.081-1.703-4.444-2.39Z"></path></svg>
