<svg xmlns="http://www.w3.org/2000/svg" width="19" height="21" viewBox="0 0 19 21"><title>share</title><path fill="#ABD037" fill-rule="nonzero" d="M14.548 20.5a3.751 3.751 0 0 0 0-7.5c-1 0-1.91.39-2.582 1.031l-3.84-2.402c.231-.734.231-1.527 0-2.258l3.84-2.402A3.751 3.751 0 1 0 14.548.5a3.751 3.751 0 0 0-3.578 4.879L7.13 7.781a3.751 3.751 0 1 0-2.582 6.469c1 0 1.91-.39 2.582-1.031l3.84 2.402a3.751 3.751 0 0 0 3.578 4.879Zm0-14.375a1.875 1.875 0 1 1 .001-3.75 1.875 1.875 0 0 1 0 3.75Zm-10 6.25a1.875 1.875 0 1 1 .001-3.75 1.875 1.875 0 0 1 0 3.75Zm10 6.25a1.875 1.875 0 1 1 .001-3.751 1.875 1.875 0 0 1 0 3.751Z"></path></svg>
