<svg xmlns="http://www.w3.org/2000/svg" width="14" height="14" viewBox="0 0 14 14"><path fill="#000" fill-rule="nonzero" d="M13.28 13.27c1.238-1.236.83-3.668-.846-6.275 1.676-2.607 2.083-5.04.847-6.275C12.043-.518 9.608-.11 7 1.565 4.392-.109 1.958-.515.72.72c-1.238 1.236-.83 3.668.846 6.275C-.11 9.602-.517 12.035.719 13.27c1.908 1.906 5.714-.48 6.281-.843.568.365 4.372 2.748 6.28.843Zm-1.802-7.604A19.323 19.323 0 0 0 8.33 2.52c1.316-.756 3.195-1.432 3.89-.74.524.523.33 2.02-.74 3.886Zm-8.956 0C1.45 3.8 1.257 2.303 1.78 1.78c.698-.696 2.583-.01 3.89.74a19.352 19.352 0 0 0-3.15 3.146ZM7 10.584a16.756 16.756 0 0 1-3.593-3.589A17.277 17.277 0 0 1 7 3.39a17.28 17.28 0 0 1 3.592 3.605A16.735 16.735 0 0 1 7 10.585Zm0-2.589a1 1 0 1 0 .001-2.001A1 1 0 0 0 7 7.995Zm-5.22 4.214c-.523-.523-.33-2.02.742-3.885a19.05 19.05 0 0 0 3.15 3.143c-1.866 1.071-3.366 1.265-3.891.742Zm6.547-.742c.707-.561 1.885-1.55 3.151-3.143 1.072 1.865 1.265 3.362.741 3.885-.526.523-2.025.33-3.892-.742Z"></path></svg>
