<svg xmlns="http://www.w3.org/2000/svg" width="16" height="16" viewBox="0 0 16 16"><path fill="#000" fill-rule="nonzero" d="M11.516 16a1.5 1.5 0 0 0 1.5-1.5v-13a1.5 1.5 0 0 0-1.5-1.5H4.5A1.5 1.5 0 0 0 3 1.5v13A1.5 1.5 0 0 0 4.5 16h7.016Zm-.188-1.5h-6.64c-.104 0-.188-.116-.188-.219V1.688c0-.104.084-.188.187-.188h6.641c.103 0 .188.084.188.188V14.28c0 .103-.085.219-.188.219Zm3.734-10.25a.188.188 0 0 0 .188-.187v-.188h.562A.188.188 0 0 0 16 3.688v-.375a.188.188 0 0 0-.188-.188h-.562v-.187a.188.188 0 0 0-.188-.188H13.75v1.5h1.312Zm-12.812 0v-1.5H.937a.188.188 0 0 0-.187.188v.187H.187A.188.188 0 0 0 0 3.313v.375c0 .103.084.187.187.187H.75v.188c0 .103.084.187.187.187H2.25Zm12.812 3a.188.188 0 0 0 .188-.187v-.188h.562A.188.188 0 0 0 16 6.688v-.375a.188.188 0 0 0-.188-.188h-.562v-.187a.188.188 0 0 0-.188-.188H13.75v1.5h1.312Zm-12.812 0v-1.5H.937a.188.188 0 0 0-.187.188v.187H.187A.188.188 0 0 0 0 6.313v.375c0 .103.084.187.187.187H.75v.188c0 .103.084.187.187.187H2.25Zm12.812 3a.188.188 0 0 0 .188-.187v-.188h.562A.188.188 0 0 0 16 9.688v-.375a.188.188 0 0 0-.188-.188h-.562v-.187a.188.188 0 0 0-.188-.188H13.75v1.5h1.312Zm-12.812 0v-1.5H.937a.188.188 0 0 0-.187.188v.187H.187A.188.188 0 0 0 0 9.313v.375c0 .103.084.187.187.187H.75v.188c0 .103.084.187.187.187H2.25Zm12.812 3a.188.188 0 0 0 .188-.187v-.188h.562a.188.188 0 0 0 .188-.187v-.375a.188.188 0 0 0-.188-.188h-.562v-.187a.188.188 0 0 0-.188-.188H13.75v1.5h1.312Zm-12.812 0v-1.5H.937a.188.188 0 0 0-.187.188v.187H.187a.188.188 0 0 0-.187.188v.375c0 .103.084.187.187.187H.75v.188c0 .103.084.187.187.187H2.25Z"></path></svg>
