<svg width="24px" height="24px" viewBox="0 0 24 24" version="1.1" xmlns="http://www.w3.org/2000/svg" xmlns:xlink="http://www.w3.org/1999/xlink"><title>atom / trending icon</title><g stroke="none" stroke-width="1" fill="none" fill-rule="evenodd"><g id="chart-line" transform="translate(1.000000, 4.000036)" fill="#ABD037" fill-rule="nonzero"><path d="M19.3749538,12.4999702 L2.5,12.4999702 L2.5,0.62499851 C2.5,0.279692937 2.2203011,0 1.87499553,0 L0.62499851,0 C0.279692937,0 0,0.279692937 0,0.62499851 L0,13.7499672 C0,14.4401969 0.559767342,14.9999642 1.24999702,14.9999642 L19.3749538,14.9999642 C19.7202594,14.9999642 19.9999523,14.7202713 19.9999523,14.3749657 L19.9999523,13.1249687 C19.9999523,12.7796631 19.7202594,12.4999702 19.3749538,12.4999702 Z M18.1249568,1.24999702 L13.5132658,1.24999702 C12.678078,1.24999702 12.2597211,2.25974498 12.8503493,2.85037315 L14.1159865,4.11601039 L11.2499732,6.98240523 L8.38395981,4.11639186 C7.89567972,3.62811177 7.10428451,3.62811177 6.6163859,4.11639186 L3.93321053,6.79960537 C3.68907049,7.04374541 3.68907049,7.43944302 3.93321053,7.68358306 L4.81676861,8.56717928 C5.06090865,8.81131932 5.4566444,8.81131932 5.70078444,8.56717928 L7.49998212,6.76756199 L10.3659955,9.63357536 C10.8542756,10.1218554 11.6456708,10.1218554 12.1335694,9.63357536 L15.8835605,5.8835843 L17.1491596,7.14918339 C17.7397877,7.73981156 18.7495742,7.32145471 18.7495742,6.48630503 L18.7495742,1.87499553 C18.7499553,1.52968996 18.4702624,1.24999702 18.1249568,1.24999702 Z" id="Shape"></path></g><g id="chart-line2" transform="translate(2.000000, 6.000036)" fill="#000000" fill-rule="nonzero"><path d="M4.59570743,8.34569849 C4.83984747,8.58983853 5.23554507,8.58983853 5.47968512,8.34569849 L7.49998212,6.32578295 L10.8081941,9.63395683 C11.0523342,9.87809687 11.4480318,9.87809687 11.6921718,9.63395683 L15.9976196,5.32812756 L17.1495792,6.48046856 C17.7402073,7.07105858 18.7499553,6.65270173 18.7499553,5.81755205 L18.7499553,1.87499553 C18.7499553,1.52968996 18.4702624,1.24999702 18.1249568,1.24999702 L14.1824003,1.24999702 C13.3472506,1.24999702 12.9288937,2.25974498 13.5194838,2.85037315 L14.6718248,4.00233268 L11.2499732,7.42418426 L7.94176116,4.11601039 C7.69762111,3.87187035 7.30192351,3.87187035 7.05778347,4.11601039 L4.15389024,7.01990361 C3.9097502,7.26404366 3.9097502,7.65974126 4.15389024,7.9038813 L4.59570743,8.34569849 Z M19.3749538,13.1249687 L1.87499553,13.1249687 L1.87499553,0.62499851 C1.87499553,0.279692937 1.59530259,0 1.24999702,0 L0.62499851,0 C0.279692937,0 0,0.279692937 0,0.62499851 L0,13.7499672 C0,14.4401969 0.559767342,14.9999642 1.24999702,14.9999642 L19.3749538,14.9999642 C19.7202594,14.9999642 19.9999523,14.7202713 19.9999523,14.3749657 L19.9999523,13.7499672 C19.9999523,13.4046616 19.7202594,13.1249687 19.3749538,13.1249687 Z" id="Shape2"></path></g></g></svg>
