<svg xmlns="http://www.w3.org/2000/svg" width="16" height="12" viewBox="0 0 16 12"><title>trending</title><path fill="#ABD037" fill-rule="nonzero" d="M15.5 12a.5.5 0 0 0 .5-.5V11a.5.5 0 0 0-.5-.5h-14V.5A.5.5 0 0 0 1 0H.5a.5.5 0 0 0-.5.5V11a1 1 0 0 0 1 1h14.5ZM9.354 7.707l3.444-3.444.922.921a.75.75 0 0 0 1.28-.53V1.5a.5.5 0 0 0-.5-.5h-3.154a.75.75 0 0 0-.53 1.28l.921.922L9 5.939 6.353 3.293a.5.5 0 0 0-.707 0L3.323 5.616a.5.5 0 0 0 0 .707l.354.354a.5.5 0 0 0 .707 0L6 5.06l2.647 2.646a.5.5 0 0 0 .707 0Z"></path></svg>
