<svg xmlns="http://www.w3.org/2000/svg" height="19" width="24" viewBox="0 0 19 24"><g fill="none"><path fill="#ABD037" d="m2.828 20.238 13.75-8.125c1.227-.722 1.23-2.504 0-3.226L2.828.757C1.711.098 0 .739 0 2.372v16.254c0 1.465 1.59 2.348 2.828 1.613z"></path><path fill="#000" d="m3.828 23.238 13.75-8.125c1.227-.722 1.23-2.504 0-3.226l-13.75-8.13C2.711 3.098 1 3.739 1 5.372v16.254c0 1.465 1.59 2.348 2.828 1.613zm-.953-2.023V5.785c0-.18.2-.293.355-.203l13.055 7.715a.234.234 0 0 1 0 .402L3.23 21.418a.238.238 0 0 1-.355-.203z"></path></g></svg>
